<svg xmlns="http://www.w3.org/2000/svg" width="500" height="500" viewBox="0 0 500 500" version="1.1"><path d="M 124.500 76 C 124.089 76.665, 165.990 77, 249.441 77 C 332.480 77, 375 76.661, 375 76 C 375 75.339, 332.686 75, 250.059 75 C 167.844 75, 124.907 75.342, 124.500 76 M 246.302 107.569 C 243.578 108.810, 230.843 114.049, 212.500 121.477 C 207.550 123.481, 195.738 128.305, 186.250 132.196 L 169 139.272 169 175.136 L 169 211 157.250 211.162 C 136.794 211.445, 138.539 211.165, 138.186 214.224 L 137.872 216.947 153.186 217.224 L 168.500 217.500 168.760 262.250 C 168.973 298.838, 169.265 307, 170.359 307 C 171.940 307, 172.987 294.408, 172.995 275.304 L 173 263.108 178.250 264.962 C 181.138 265.982, 187.775 268.628, 193 270.842 L 202.500 274.868 203 288.578 C 203.393 299.356, 203.821 302.465, 205 303.117 C 205.825 303.573, 215.573 308.284, 226.663 313.586 C 241.908 320.876, 246.966 323.748, 247.399 325.364 C 248.153 328.173, 248.168 345.499, 247.417 346.250 C 247.096 346.571, 242.708 344.886, 237.667 342.507 C 228.519 338.190, 213.414 331.359, 198.751 324.909 L 191.002 321.500 191.001 307.750 C 191 299.012, 190.626 294, 189.973 294 C 189.305 294, 189.043 299.111, 189.223 308.635 L 189.500 323.270 198 326.991 C 202.675 329.037, 209.549 332.126, 213.275 333.856 C 217.001 335.585, 220.254 337, 220.503 337 C 220.752 337, 227.274 339.924, 234.996 343.498 L 249.037 349.997 262.768 343.898 C 290.032 331.789, 300.584 327.216, 305.250 325.488 L 310 323.728 310 309.364 C 310 300.455, 309.620 295, 309 295 C 308.383 295, 308 300.144, 308 308.433 C 308 321.500, 307.939 321.883, 305.750 322.527 C 304.512 322.891, 300.575 324.481, 297 326.060 C 291.727 328.389, 255.969 343.736, 251.250 345.695 C 250.307 346.086, 250 344.128, 250 337.732 C 250 322.749, 248.132 324.755, 273.094 312.933 L 295 302.558 295 289.970 C 295 281.409, 295.400 276.877, 296.250 275.802 C 298.133 273.422, 322.043 263.058, 325.750 263.015 C 326.703 263.003, 327 267.131, 327 280.360 C 327 300.319, 327.658 307, 329.626 307 C 330.740 307, 331.025 299.118, 331.240 262.458 L 331.500 217.915 340.500 217.580 C 345.450 217.396, 351.863 217.190, 354.750 217.122 C 359.889 217.003, 360 216.937, 360 214 L 360 211 345.500 211 L 331 211 331 175.139 L 331 139.278 325.750 137.216 C 322.863 136.082, 304.436 128.661, 284.802 120.724 C 251.501 107.262, 248.917 106.379, 246.302 107.569 M 245.450 111.921 C 244.636 112.710, 189.572 135.299, 177.250 139.898 L 173 141.484 173 176.085 L 173 210.686 212.250 211.276 C 233.838 211.600, 268.488 211.600, 289.250 211.275 L 327 210.683 327 176.084 L 327 141.484 322.750 139.858 C 320.413 138.964, 308.825 134.304, 297 129.502 C 285.175 124.701, 270.100 118.630, 263.500 116.011 L 251.500 111.250 251.209 119.784 C 251.049 124.477, 251.274 128.667, 251.709 129.094 C 252.475 129.846, 264.009 134.217, 280.500 140.003 C 284.900 141.547, 296.375 145.791, 306 149.434 C 315.625 153.078, 324.155 156.292, 324.956 156.577 C 325.756 156.862, 319.456 159.482, 310.956 162.399 C 302.455 165.317, 285.169 171.607, 272.542 176.377 C 253.478 183.579, 249.153 184.888, 247.042 184.093 C 245.644 183.567, 239.100 181.045, 232.500 178.489 C 217.511 172.685, 176.278 158, 174.971 158 C 171.517 158, 175.842 155.828, 188.250 151.332 C 201.384 146.573, 208.108 144.078, 236.731 133.339 L 246.962 129.500 246.981 120.250 C 246.991 115.162, 246.865 111, 246.700 111 C 246.535 111, 245.972 111.414, 245.450 111.921 M 223 142.704 C 210.625 147.383, 197.125 152.480, 193 154.030 C 186.094 156.625, 185.698 156.923, 188 157.798 C 190.499 158.748, 210.180 165.842, 230.023 172.947 C 235.811 175.019, 241.999 177.465, 243.773 178.383 L 247 180.051 247 157.026 C 247 144.362, 246.662 134.044, 246.250 134.099 C 245.838 134.153, 235.375 138.026, 223 142.704 M 251 156.500 C 251 168.875, 251.214 179, 251.477 179 C 251.739 179, 256.126 177.475, 261.227 175.612 C 266.327 173.749, 278.150 169.446, 287.500 166.051 C 296.850 162.656, 306.433 159.162, 308.796 158.286 C 311.159 157.410, 312.734 156.352, 312.296 155.935 C 311.858 155.518, 300.700 151.348, 287.500 146.668 C 274.300 141.989, 261.325 137.224, 258.667 136.080 C 250.505 132.567, 251 131.249, 251 156.500 M 182.750 217.713 L 173 218.072 173 237.050 L 173 256.027 176.347 254.628 C 178.187 253.859, 183.631 251.153, 188.443 248.615 C 193.255 246.077, 197.797 244, 198.537 244 C 200.406 244, 200.695 243.332, 202.430 235.014 C 203.271 230.978, 205.098 225.499, 206.490 222.838 L 209.019 218 203.635 218 C 200.673 218, 196.956 217.854, 195.375 217.677 C 193.794 217.499, 188.113 217.515, 182.750 217.713 M 301.278 217.747 L 289.056 218.061 292.022 222.881 C 293.653 225.533, 295.690 230.808, 296.547 234.605 L 298.106 241.508 312.553 248.754 L 327 255.999 327 236.500 L 327 217 320.250 217.216 C 316.538 217.335, 308 217.574, 301.278 217.747 M 215.088 223.120 C 211.998 228.482, 209.604 235.311, 210.193 237.080 C 210.461 237.883, 223.742 231.549, 237.750 223.938 C 244.787 220.115, 243.689 219.448, 228.707 218.444 L 218.189 217.740 215.088 223.120 M 271 218.554 C 270.175 218.732, 266.906 219.163, 263.736 219.512 C 260.567 219.861, 258.210 220.530, 258.499 220.999 C 259.658 222.873, 287.841 237.492, 288.680 236.653 C 289.623 235.710, 286 227.637, 282.440 222.750 C 278.955 217.964, 277.029 217.258, 271 218.554 M 229.550 235.577 C 219.128 240.807, 210.015 245.572, 209.300 246.166 C 207.781 247.427, 207.412 268, 208.908 268 C 209.408 268, 218.596 263.607, 229.327 258.237 L 248.837 248.473 268.669 258.190 C 279.576 263.534, 289.063 267.927, 289.750 267.953 C 290.680 267.988, 290.993 265.122, 290.973 256.750 L 290.947 245.500 270.988 235.750 C 260.010 230.387, 250.460 226.015, 249.764 226.034 C 249.069 226.053, 239.973 230.347, 229.550 235.577 M 296 258.943 L 296 268.887 302.750 266.097 C 306.462 264.562, 311.722 262.174, 314.439 260.790 C 319.048 258.440, 319.238 258.198, 317.284 257.152 C 314.250 255.528, 297.906 249, 296.874 249 C 296.393 249, 296 253.474, 296 258.943 M 191.500 254.079 C 186.550 256.297, 182.129 258.480, 181.675 258.931 C 180.865 259.735, 192.837 265.125, 198.250 266.394 L 201 267.038 201 260.101 C 201 256.285, 201.273 252.452, 201.607 251.582 C 202.467 249.341, 201.598 249.555, 191.500 254.079 M 251 271.555 C 251 280.600, 251.163 288, 251.362 288 C 254.039 288, 285 273.194, 285 271.914 C 285 271.009, 272.235 264.588, 256.250 257.453 L 251 255.110 251 271.555 M 229.250 263.966 C 220.313 268.344, 213 272.187, 213 272.505 C 213 272.823, 215.813 274.365, 219.250 275.930 C 222.688 277.496, 230.338 281.055, 236.250 283.840 L 247 288.903 247 272.452 C 247 263.403, 246.662 256.001, 246.250 256.003 C 245.838 256.004, 238.188 259.587, 229.250 263.966 M 207 287.970 L 207 299.891 214.250 303.375 C 218.238 305.292, 227.238 309.560, 234.250 312.861 L 247 318.863 247 306.062 L 247 293.261 240.750 290.510 C 228.845 285.270, 211.490 277.780, 209.250 276.917 L 207 276.050 207 287.970 M 284 278.979 C 280.425 280.534, 271.650 284.449, 264.500 287.679 L 251.500 293.551 251.219 305.776 C 251.065 312.499, 251.179 318, 251.474 318 C 252.299 318, 289.396 300.826, 290.283 300.033 C 290.714 299.648, 290.939 294.118, 290.783 287.743 L 290.500 276.153 284 278.979 M 145.228 363.750 L 145.500 382.500 248.250 382.755 L 351 383.009 351 364.005 L 351 345 333 345 L 315 345 315 356.500 L 315 368 248.500 368 L 182 368 182 356.500 L 182 345 163.478 345 L 144.956 345 145.228 363.750" stroke="none" fill="#f4f8fa" fill-rule="evenodd"/></svg>